<svg xmlns="http://www.w3.org/2000/svg" xmlns:xlink="http://www.w3.org/1999/xlink" viewBox="0 0 1004.38 1053.94"><defs><style>.cls-1{fill:none;stroke-miterlimit:10;stroke-width:25px;stroke:url(#Sfumatura_senza_nome_11);}.cls-2{fill:#ffad0a;}.cls-3{fill:#f3f4f5;}.cls-4{fill:#2274a5;}.cls-5{fill:#f06543;}</style><linearGradient id="Sfumatura_senza_nome_11" x1="1002.89" y1="541.75" x2="227.01" y2="541.75" gradientUnits="userSpaceOnUse"><stop offset="0" stop-color="#6ecc84"></stop><stop offset="1" stop-color="#264e32"></stop></linearGradient></defs><g id="Livello_1" data-name="Livello 1"><circle class="cls-1" cx="614.95" cy="541.75" r="375.44"></circle></g><g id="Livello_2" data-name="Livello 2"><path class="cls-2" d="M562.05,158.35a203.1,203.1,0,0,1,8-22.8c42.6-101.91,159.75-150,261.66-107.39s150,159.75,107.39,261.66-159.75,150-261.66,107.39C583,357.76,534.82,254.36,562.05,158.35" transform="translate(-21.42 -12.63)"></path><path class="cls-3" d="M672.22,136.09v10h-5.86V117.67h11.09a12.86,12.86,0,0,1,5.64,1.17,8.61,8.61,0,0,1,3.74,3.33,9.32,9.32,0,0,1,1.31,4.91,8.18,8.18,0,0,1-2.87,6.6c-1.9,1.6-4.54,2.41-7.91,2.41Zm0-4.75h5.23a5.17,5.17,0,0,0,3.55-1.09,4,4,0,0,0,1.22-3.13,4.7,4.7,0,0,0-1.23-3.38,4.62,4.62,0,0,0-3.4-1.32h-5.37Z" transform="translate(-21.42 -12.63)"></path><path class="cls-3" d="M710.27,133.78H699v7.62h13.2v4.71H693.16V117.67h19v4.75H699v6.77h11.25Z" transform="translate(-21.42 -12.63)"></path><path class="cls-3" d="M739.78,146.11h-5.85L722.52,127.4v18.71h-5.86V117.67h5.86l11.42,18.75V117.67h5.84Z" transform="translate(-21.42 -12.63)"></path><path class="cls-3" d="M760.65,138.65a3,3,0,0,0-1.17-2.55,15.66,15.66,0,0,0-4.22-1.88,29.41,29.41,0,0,1-4.83-1.94q-4.84-2.61-4.84-7a6.82,6.82,0,0,1,1.3-4.11,8.35,8.35,0,0,1,3.73-2.82,14,14,0,0,1,5.46-1,12.88,12.88,0,0,1,5.43,1.1,8.69,8.69,0,0,1,3.7,3.12,8.13,8.13,0,0,1,1.32,4.57h-5.86a3.84,3.84,0,0,0-1.23-3A5.09,5.09,0,0,0,756,122a5.37,5.37,0,0,0-3.34.91,2.86,2.86,0,0,0-1.19,2.39,2.72,2.72,0,0,0,1.4,2.32,15.68,15.68,0,0,0,4.11,1.76,17.76,17.76,0,0,1,7.28,3.73,7.41,7.41,0,0,1,2.29,5.55,6.83,6.83,0,0,1-2.8,5.79,12.2,12.2,0,0,1-7.52,2.1,14.5,14.5,0,0,1-6-1.2,9.43,9.43,0,0,1-4.11-3.29,8.41,8.41,0,0,1-1.42-4.85h5.88q0,4.71,5.62,4.71a5.48,5.48,0,0,0,3.27-.85A2.77,2.77,0,0,0,760.65,138.65Z" transform="translate(-21.42 -12.63)"></path><path class="cls-3" d="M777.72,146.11h-5.86V117.67h5.86Z" transform="translate(-21.42 -12.63)"></path><path class="cls-3" d="M801.26,133.78H790v7.62h13.2v4.71H784.15V117.67h19v4.75H790v6.77h11.25Z" transform="translate(-21.42 -12.63)"></path><path class="cls-3" d="M818.18,135.7h-4.67v10.41h-5.86V117.67h10.57q5,0,7.77,2.25a7.74,7.74,0,0,1,2.74,6.34,8.78,8.78,0,0,1-1.26,4.86,8.6,8.6,0,0,1-3.82,3.09l6.15,11.62v.28h-6.29ZM813.51,131h4.73a4.84,4.84,0,0,0,3.42-1.12,4,4,0,0,0,1.21-3.1,4.26,4.26,0,0,0-1.15-3.16,4.73,4.73,0,0,0-3.5-1.15h-4.71Z" transform="translate(-21.42 -12.63)"></path><path class="cls-3" d="M840.41,146.11h-5.86V117.67h5.86Z" transform="translate(-21.42 -12.63)"></path><path class="cls-3" d="M697.44,208.64a10,10,0,0,1-3.39,7.22A11.91,11.91,0,0,1,686,218.5a10.71,10.71,0,0,1-8.6-3.68q-3.14-3.69-3.14-10.11V203a17,17,0,0,1,1.45-7.23,10.8,10.8,0,0,1,4.13-4.79,12.9,12.9,0,0,1,14.17,1,10.84,10.84,0,0,1,3.48,7.4h-5.86a6,6,0,0,0-1.54-4,5.7,5.7,0,0,0-4-1.24,5,5,0,0,0-4.38,2.1c-1,1.4-1.47,3.58-1.5,6.52v2.15c0,3.07.47,5.32,1.4,6.73a4.88,4.88,0,0,0,4.4,2.13,5.76,5.76,0,0,0,4-1.24,5.54,5.54,0,0,0,1.54-3.83Z" transform="translate(-21.42 -12.63)"></path><path class="cls-3" d="M712.81,207.7h-4.67v10.41h-5.86V189.67h10.57q5,0,7.77,2.25a7.72,7.72,0,0,1,2.74,6.34,8.78,8.78,0,0,1-1.26,4.86,8.55,8.55,0,0,1-3.82,3.09l6.15,11.62v.28h-6.29ZM708.14,203h4.73a4.84,4.84,0,0,0,3.42-1.12,4,4,0,0,0,1.21-3.1,4.3,4.3,0,0,0-1.14-3.16,4.74,4.74,0,0,0-3.51-1.15h-4.71Z" transform="translate(-21.42 -12.63)"></path><path class="cls-3" d="M745.92,205.78H734.67v7.62h13.2v4.71H728.81V189.67h19v4.75H734.67v6.77h11.25Z" transform="translate(-21.42 -12.63)"></path><path class="cls-3" d="M768.37,212.25H758.09l-2,5.86h-6.23l10.59-28.44h5.43l10.64,28.44h-6.23Zm-8.69-4.75h7.1l-3.57-10.64Z" transform="translate(-21.42 -12.63)"></path><path class="cls-3" d="M803.35,218.11h-5.86l-11.4-18.71v18.71h-5.86V189.67h5.86l11.42,18.75V189.67h5.84Z" transform="translate(-21.42 -12.63)"></path><path class="cls-3" d="M832.83,204.53a17.19,17.19,0,0,1-1.49,7.37,11.19,11.19,0,0,1-4.24,4.88,12.55,12.55,0,0,1-12.65,0,11.31,11.31,0,0,1-4.3-4.85,16.77,16.77,0,0,1-1.54-7.26v-1.41a17.05,17.05,0,0,1,1.51-7.39,11.29,11.29,0,0,1,4.28-4.9A12.53,12.53,0,0,1,827,191a11.2,11.2,0,0,1,4.27,4.9,17,17,0,0,1,1.52,7.37Zm-5.94-1.29q0-4.47-1.6-6.79a5.65,5.65,0,0,0-9.12,0q-1.6,2.29-1.62,6.73v1.38a12.09,12.09,0,0,0,1.6,6.76,5.61,5.61,0,0,0,9.14.09c1.05-1.54,1.59-3.79,1.6-6.75Z" transform="translate(-21.42 -12.63)"></path><path class="cls-3" d="M675.65,277.78H664.4v7.62h13.2v4.71H658.54V261.67h19v4.75H664.4v6.77h11.25Z" transform="translate(-21.42 -12.63)"></path><path class="cls-3" d="M689.69,261.67,697,282.3l7.26-20.63H712v28.44h-5.88v-7.78l.59-13.41L699,290.11h-4l-7.66-21.17.59,13.39v7.78H682V261.67Z" transform="translate(-21.42 -12.63)"></path><path class="cls-3" d="M741.44,276.53A17.19,17.19,0,0,1,740,283.9a11.21,11.21,0,0,1-4.25,4.88,11.7,11.7,0,0,1-6.34,1.72,11.82,11.82,0,0,1-6.3-1.7,11.24,11.24,0,0,1-4.3-4.85,16.63,16.63,0,0,1-1.54-7.26v-1.41a17.05,17.05,0,0,1,1.51-7.39A11.22,11.22,0,0,1,723,263a12.52,12.52,0,0,1,12.63,0,11.22,11.22,0,0,1,4.28,4.9,17,17,0,0,1,1.52,7.37Zm-5.94-1.29c0-3-.54-5.24-1.6-6.79a5.66,5.66,0,0,0-9.13,0q-1.59,2.29-1.62,6.73v1.38a12.08,12.08,0,0,0,1.61,6.76,5.61,5.61,0,0,0,9.14.09q1.58-2.31,1.6-6.75Z" transform="translate(-21.42 -12.63)"></path><path class="cls-3" d="M752.45,285.4h14.34v4.71H745.13v-3.44l14.06-20.25h-14v-4.75h21.33V265Z" transform="translate(-21.42 -12.63)"></path><path class="cls-3" d="M777.71,290.11h-5.86V261.67h5.86Z" transform="translate(-21.42 -12.63)"></path><path class="cls-3" d="M807.5,276.53A17.19,17.19,0,0,1,806,283.9a11.21,11.21,0,0,1-4.25,4.88,11.72,11.72,0,0,1-6.34,1.72,11.86,11.86,0,0,1-6.31-1.7,11.22,11.22,0,0,1-4.29-4.85,16.77,16.77,0,0,1-1.55-7.26v-1.41a17.05,17.05,0,0,1,1.52-7.39,11.27,11.27,0,0,1,4.27-4.9,12.53,12.53,0,0,1,12.64,0,11.29,11.29,0,0,1,4.28,4.9,17,17,0,0,1,1.51,7.37Zm-5.94-1.29q0-4.47-1.6-6.79a5.65,5.65,0,0,0-9.12,0q-1.61,2.29-1.62,6.73v1.38a12.09,12.09,0,0,0,1.6,6.76,5.22,5.22,0,0,0,4.61,2.4,5.15,5.15,0,0,0,4.53-2.31q1.59-2.31,1.6-6.75Z" transform="translate(-21.42 -12.63)"></path><path class="cls-3" d="M835.88,290.11H830l-11.4-18.71v18.71h-5.86V261.67h5.86L830,280.42V261.67h5.84Z" transform="translate(-21.42 -12.63)"></path><path class="cls-3" d="M848.23,290.11h-5.86V261.67h5.86Z" transform="translate(-21.42 -12.63)"></path></g><g id="Livello_3" data-name="Livello 3"><circle class="cls-4" cx="804.33" cy="853.88" r="200"></circle><path class="cls-3" d="M748.18,795H736.93v7.62h13.2v4.7H731.07V778.91h19v4.74H736.93v6.78h11.25Z" transform="translate(-21.42 -12.63)"></path><path class="cls-3" d="M762.23,778.91l7.3,20.62,7.27-20.62h7.69v28.43h-5.88v-7.77l.59-13.42-7.68,21.19h-4l-7.66-21.17.59,13.4v7.77h-5.86V778.91Z" transform="translate(-21.42 -12.63)"></path><path class="cls-3" d="M814,793.77a17.15,17.15,0,0,1-1.49,7.36,11.22,11.22,0,0,1-4.24,4.89,12.62,12.62,0,0,1-12.65,0,11.33,11.33,0,0,1-4.3-4.86,16.69,16.69,0,0,1-1.54-7.25v-1.41a17.05,17.05,0,0,1,1.51-7.39,11.32,11.32,0,0,1,4.28-4.91,12.6,12.6,0,0,1,12.64,0,11.23,11.23,0,0,1,4.27,4.91A17,17,0,0,1,814,792.5ZM808,792.48q0-4.47-1.6-6.8a5.66,5.66,0,0,0-9.12,0c-1.07,1.53-1.61,3.78-1.62,6.73v1.39a12.11,12.11,0,0,0,1.6,6.76,5.61,5.61,0,0,0,9.14.09,12.1,12.1,0,0,0,1.6-6.75Z" transform="translate(-21.42 -12.63)"></path><path class="cls-3" d="M825,802.64h14.33v4.7H817.66v-3.43l14.07-20.26H817.68v-4.74H839v3.36Z" transform="translate(-21.42 -12.63)"></path><path class="cls-3" d="M850.25,807.34h-5.86V778.91h5.86Z" transform="translate(-21.42 -12.63)"></path><path class="cls-3" d="M880,793.77a17.15,17.15,0,0,1-1.48,7.36A11.24,11.24,0,0,1,874.3,806a12.6,12.6,0,0,1-12.64,0,11.27,11.27,0,0,1-4.3-4.86,16.55,16.55,0,0,1-1.54-7.25v-1.41a17.05,17.05,0,0,1,1.51-7.39,11.25,11.25,0,0,1,4.28-4.91,12.58,12.58,0,0,1,12.63,0,11.25,11.25,0,0,1,4.28,4.91A17,17,0,0,1,880,792.5Zm-5.93-1.29c0-3-.54-5.25-1.6-6.8a5.67,5.67,0,0,0-9.13,0c-1.06,1.53-1.6,3.78-1.62,6.73v1.39a12.19,12.19,0,0,0,1.6,6.76,5.62,5.62,0,0,0,9.15.09q1.57-2.32,1.6-6.75Z" transform="translate(-21.42 -12.63)"></path><path class="cls-3" d="M908.42,807.34h-5.86l-11.41-18.71v18.71h-5.86V778.91h5.86l11.43,18.75V778.91h5.84Z" transform="translate(-21.42 -12.63)"></path><path class="cls-3" d="M920.77,807.34h-5.86V778.91h5.86Z" transform="translate(-21.42 -12.63)"></path><path class="cls-3" d="M770,869.87a10.06,10.06,0,0,1-3.39,7.23,11.89,11.89,0,0,1-8.06,2.63,10.68,10.68,0,0,1-8.6-3.68q-3.13-3.67-3.13-10.1v-1.74a17.09,17.09,0,0,1,1.44-7.23,10.86,10.86,0,0,1,4.13-4.79,12.92,12.92,0,0,1,14.17,1,10.8,10.8,0,0,1,3.48,7.4h-5.86a5.92,5.92,0,0,0-1.53-4,5.68,5.68,0,0,0-4-1.24,5,5,0,0,0-4.38,2.1q-1.46,2.1-1.5,6.51v2.15c0,3.08.47,5.32,1.4,6.74a4.88,4.88,0,0,0,4.4,2.13,5.79,5.79,0,0,0,4.06-1.24,5.62,5.62,0,0,0,1.53-3.84Z" transform="translate(-21.42 -12.63)"></path><path class="cls-3" d="M785.35,868.93h-4.67v10.41h-5.86V850.91h10.56q5,0,7.78,2.24a7.77,7.77,0,0,1,2.73,6.35,8.72,8.72,0,0,1-1.26,4.85,8.56,8.56,0,0,1-3.82,3.1L797,879.07v.27h-6.29Zm-4.67-4.74h4.72a4.83,4.83,0,0,0,3.42-1.13A4,4,0,0,0,790,860a4.32,4.32,0,0,0-1.14-3.17,4.78,4.78,0,0,0-3.51-1.15h-4.7Z" transform="translate(-21.42 -12.63)"></path><path class="cls-3" d="M818.45,867H807.2v7.62h13.21v4.7H801.35V850.91h19v4.74H807.2v6.78h11.25Z" transform="translate(-21.42 -12.63)"></path><path class="cls-3" d="M840.9,873.48H830.63l-2,5.86h-6.23L833,850.91h5.43l10.64,28.43h-6.23Zm-8.69-4.74h7.11l-3.58-10.65Z" transform="translate(-21.42 -12.63)"></path><path class="cls-3" d="M875.88,879.34H870l-11.4-18.71v18.71h-5.86V850.91h5.86L870,869.66V850.91h5.84Z" transform="translate(-21.42 -12.63)"></path><path class="cls-3" d="M905.36,865.77a17.15,17.15,0,0,1-1.48,7.36,11.24,11.24,0,0,1-4.25,4.89A12.62,12.62,0,0,1,887,878a11.33,11.33,0,0,1-4.3-4.86,16.69,16.69,0,0,1-1.54-7.25v-1.41a17.05,17.05,0,0,1,1.52-7.39,11.23,11.23,0,0,1,4.27-4.91,12.6,12.6,0,0,1,12.64,0,11.32,11.32,0,0,1,4.28,4.91,17,17,0,0,1,1.51,7.37Zm-5.94-1.29q0-4.47-1.6-6.8a5.66,5.66,0,0,0-9.12,0c-1.07,1.53-1.61,3.78-1.62,6.73v1.39a12.11,12.11,0,0,0,1.6,6.76,5.22,5.22,0,0,0,4.61,2.4,5.15,5.15,0,0,0,4.53-2.31q1.59-2.32,1.6-6.75Z" transform="translate(-21.42 -12.63)"></path><path class="cls-3" d="M682.09,941.87a10.06,10.06,0,0,1-3.39,7.23,11.89,11.89,0,0,1-8.06,2.63,10.68,10.68,0,0,1-8.6-3.68q-3.13-3.67-3.13-10.1v-1.74a17.09,17.09,0,0,1,1.44-7.23,10.8,10.8,0,0,1,4.13-4.79,12.92,12.92,0,0,1,14.17,1,10.8,10.8,0,0,1,3.48,7.4h-5.86a6,6,0,0,0-1.53-4,5.68,5.68,0,0,0-4-1.24,5,5,0,0,0-4.38,2.1q-1.46,2.1-1.5,6.51v2.15c0,3.08.47,5.32,1.4,6.74a4.88,4.88,0,0,0,4.4,2.13,5.79,5.79,0,0,0,4.06-1.24,5.62,5.62,0,0,0,1.53-3.84Z" transform="translate(-21.42 -12.63)"></path><path class="cls-3" d="M709.3,937.77a17.15,17.15,0,0,1-1.49,7.36,11.18,11.18,0,0,1-4.25,4.89,12.6,12.6,0,0,1-12.64,0,11.33,11.33,0,0,1-4.3-4.86,16.55,16.55,0,0,1-1.54-7.25v-1.41a17.05,17.05,0,0,1,1.51-7.39,11.32,11.32,0,0,1,4.28-4.91,12.6,12.6,0,0,1,12.64,0,11.29,11.29,0,0,1,4.27,4.91,17,17,0,0,1,1.52,7.37Zm-5.94-1.29c0-3-.54-5.25-1.6-6.8a5.66,5.66,0,0,0-9.12,0c-1.07,1.53-1.61,3.78-1.62,6.73v1.39a12.11,12.11,0,0,0,1.6,6.76,5.61,5.61,0,0,0,9.14.09,12.1,12.1,0,0,0,1.6-6.75Z" transform="translate(-21.42 -12.63)"></path><path class="cls-3" d="M721.21,922.91l7.31,20.62,7.26-20.62h7.7v28.43H737.6v-7.77l.58-13.42-7.67,21.19h-4l-7.65-21.17.58,13.4v7.77h-5.86V922.91Z" transform="translate(-21.42 -12.63)"></path><path class="cls-3" d="M754.45,941.32v10h-5.86V922.91h11.1a12.84,12.84,0,0,1,5.63,1.17,8.61,8.61,0,0,1,3.74,3.33,9.29,9.29,0,0,1,1.31,4.91,8.15,8.15,0,0,1-2.86,6.59q-2.87,2.42-7.92,2.41Zm0-4.74h5.24a5.12,5.12,0,0,0,3.54-1.1,3.94,3.94,0,0,0,1.22-3.12,4.7,4.7,0,0,0-1.23-3.38,4.61,4.61,0,0,0-3.4-1.33h-5.37Z" transform="translate(-21.42 -12.63)"></path><path class="cls-3" d="M797.75,937.77a17.15,17.15,0,0,1-1.48,7.36A11.24,11.24,0,0,1,792,950a12.62,12.62,0,0,1-12.65,0,11.31,11.31,0,0,1-4.29-4.86,16.69,16.69,0,0,1-1.55-7.25v-1.41a17.05,17.05,0,0,1,1.52-7.39,11.25,11.25,0,0,1,4.28-4.91,12.58,12.58,0,0,1,12.63,0,11.25,11.25,0,0,1,4.28,4.91,17,17,0,0,1,1.51,7.37Zm-5.93-1.29q0-4.47-1.61-6.8a5.66,5.66,0,0,0-9.12,0c-1.06,1.53-1.61,3.78-1.62,6.73v1.39a12.19,12.19,0,0,0,1.6,6.76,5.22,5.22,0,0,0,4.61,2.4,5.15,5.15,0,0,0,4.53-2.31c1.06-1.55,1.59-3.8,1.61-6.75Z" transform="translate(-21.42 -12.63)"></path><path class="cls-3" d="M812.54,940.93h-4.67v10.41H802V922.91h10.57q5,0,7.77,2.24a7.78,7.78,0,0,1,2.74,6.35,8.72,8.72,0,0,1-1.26,4.85,8.62,8.62,0,0,1-3.82,3.1l6.15,11.62v.27h-6.29Zm-4.67-4.74h4.73a4.85,4.85,0,0,0,3.42-1.13,4,4,0,0,0,1.21-3.09,4.29,4.29,0,0,0-1.15-3.17,4.77,4.77,0,0,0-3.5-1.15h-4.71Z" transform="translate(-21.42 -12.63)"></path><path class="cls-3" d="M848,927.65h-8.71v23.69H833.4V927.65h-8.6v-4.74H848Z" transform="translate(-21.42 -12.63)"></path><path class="cls-3" d="M865,945.48H854.75l-2,5.86h-6.23l10.59-28.43h5.43l10.64,28.43H867Zm-8.69-4.74h7.11l-3.58-10.65Z" transform="translate(-21.42 -12.63)"></path><path class="cls-3" d="M883.53,922.91l7.31,20.62,7.26-20.62h7.7v28.43h-5.88v-7.77l.59-13.42-7.68,21.19h-4l-7.66-21.17.59,13.4v7.77h-5.86V922.91Z" transform="translate(-21.42 -12.63)"></path><path class="cls-3" d="M928,939H916.78v7.62H930v4.7H910.92V922.91h19v4.74H916.78v6.78H928Z" transform="translate(-21.42 -12.63)"></path><path class="cls-3" d="M956.54,951.34h-5.86l-11.4-18.71v18.71h-5.86V922.91h5.86l11.42,18.75V922.91h5.84Z" transform="translate(-21.42 -12.63)"></path><path class="cls-3" d="M982.5,927.65h-8.71v23.69h-5.86V927.65h-8.59v-4.74H982.5Z" transform="translate(-21.42 -12.63)"></path><path class="cls-3" d="M992.07,951.34h-5.86V922.91h5.86Z" transform="translate(-21.42 -12.63)"></path></g><g id="Livello_4" data-name="Livello 4"><circle class="cls-5" cx="200.05" cy="592.65" r="200"></circle><path class="cls-3" d="M74,553.71a10,10,0,0,1-3.39,7.22,11.87,11.87,0,0,1-8,2.64,10.69,10.69,0,0,1-8.61-3.68q-3.14-3.67-3.13-10.11V548a17.07,17.07,0,0,1,1.44-7.22,10.91,10.91,0,0,1,4.14-4.8,11.6,11.6,0,0,1,6.24-1.67A11.6,11.6,0,0,1,70.54,537a10.83,10.83,0,0,1,3.47,7.4H68.15a5.92,5.92,0,0,0-1.53-4,5.67,5.67,0,0,0-4-1.24,5,5,0,0,0-4.39,2.1q-1.45,2.1-1.49,6.51v2.15q0,4.61,1.39,6.74a4.89,4.89,0,0,0,4.41,2.13,5.81,5.81,0,0,0,4-1.24,5.62,5.62,0,0,0,1.53-3.84Z" transform="translate(-21.42 -12.63)"></path><path class="cls-3" d="M101.18,549.61A17.15,17.15,0,0,1,99.7,557a11.16,11.16,0,0,1-4.25,4.88,12.55,12.55,0,0,1-12.65,0A11.31,11.31,0,0,1,78.5,557,16.7,16.7,0,0,1,77,549.76v-1.4a17.1,17.1,0,0,1,1.52-7.4,11.26,11.26,0,0,1,4.27-4.9,12.53,12.53,0,0,1,12.64,0,11.34,11.34,0,0,1,4.28,4.9,17,17,0,0,1,1.51,7.38Zm-5.94-1.29q0-4.47-1.6-6.8a5.66,5.66,0,0,0-9.12,0c-1.07,1.53-1.61,3.78-1.62,6.73v1.39a12.07,12.07,0,0,0,1.6,6.75,5.19,5.19,0,0,0,4.61,2.41,5.14,5.14,0,0,0,4.53-2.32q1.59-2.31,1.6-6.75Z" transform="translate(-21.42 -12.63)"></path><path class="cls-3" d="M113.09,534.74l7.31,20.63,7.26-20.63h7.7v28.44h-5.88v-7.77l.59-13.42-7.68,21.19h-4L110.71,542l.59,13.4v7.77h-5.86V534.74Z" transform="translate(-21.42 -12.63)"></path><path class="cls-3" d="M146.34,553.16v10h-5.86V534.74h11.09a12.75,12.75,0,0,1,5.64,1.18,8.67,8.67,0,0,1,3.74,3.33,9.26,9.26,0,0,1,1.3,4.91,8.16,8.16,0,0,1-2.86,6.59q-2.85,2.41-7.92,2.41Zm0-4.74h5.23a5.17,5.17,0,0,0,3.55-1.1,4,4,0,0,0,1.22-3.12,4.68,4.68,0,0,0-1.23-3.38,4.62,4.62,0,0,0-3.4-1.33h-5.37Z" transform="translate(-21.42 -12.63)"></path><path class="cls-3" d="M189.64,549.61a17.15,17.15,0,0,1-1.49,7.36,11.1,11.1,0,0,1-4.25,4.88,12.53,12.53,0,0,1-12.64,0A11.31,11.31,0,0,1,167,557a16.7,16.7,0,0,1-1.54-7.26v-1.4a17.1,17.1,0,0,1,1.51-7.4,11.34,11.34,0,0,1,4.28-4.9,12.53,12.53,0,0,1,12.64,0,11.32,11.32,0,0,1,4.27,4.9,17,17,0,0,1,1.52,7.38Zm-5.94-1.29q0-4.47-1.6-6.8a5.66,5.66,0,0,0-9.12,0c-1.07,1.53-1.61,3.78-1.62,6.73v1.39a12.07,12.07,0,0,0,1.6,6.75,5.6,5.6,0,0,0,9.14.09c1.05-1.54,1.59-3.79,1.6-6.75Z" transform="translate(-21.42 -12.63)"></path><path class="cls-3" d="M204.42,552.77h-4.67v10.41H193.9V534.74h10.56q5,0,7.77,2.25a7.74,7.74,0,0,1,2.74,6.35,8.72,8.72,0,0,1-1.26,4.85,8.56,8.56,0,0,1-3.82,3.1L216,562.91v.27h-6.29ZM199.75,548h4.73a4.84,4.84,0,0,0,3.42-1.12,4,4,0,0,0,1.21-3.09,4.32,4.32,0,0,0-1.14-3.17,4.74,4.74,0,0,0-3.51-1.15h-4.71Z" transform="translate(-21.42 -12.63)"></path><path class="cls-3" d="M239.85,539.49h-8.71v23.69h-5.86V539.49h-8.59v-4.75h23.16Z" transform="translate(-21.42 -12.63)"></path><path class="cls-3" d="M256.9,557.32H246.63l-1.95,5.86h-6.23L249,534.74h5.43l10.65,28.44h-6.23Zm-8.69-4.74h7.11l-3.57-10.65Z" transform="translate(-21.42 -12.63)"></path><path class="cls-3" d="M275.42,534.74l7.3,20.63L290,534.74h7.69v28.44H291.8v-7.77l.59-13.42-7.68,21.19h-4L273,542l.58,13.4v7.77h-5.86V534.74Z" transform="translate(-21.42 -12.63)"></path><path class="cls-3" d="M319.91,550.86H308.66v7.61h13.2v4.71H302.8V534.74h19v4.75H308.66v6.78h11.25Z" transform="translate(-21.42 -12.63)"></path><path class="cls-3" d="M348.43,563.18h-5.86l-11.41-18.71v18.71H325.3V534.74h5.86l11.43,18.75V534.74h5.84Z" transform="translate(-21.42 -12.63)"></path><path class="cls-3" d="M374.38,539.49h-8.71v23.69h-5.86V539.49h-8.59v-4.75h23.16Z" transform="translate(-21.42 -12.63)"></path><path class="cls-3" d="M384,563.18h-5.86V534.74H384Z" transform="translate(-21.42 -12.63)"></path><path class="cls-3" d="M161.85,625.71a10.05,10.05,0,0,1-3.38,7.22,11.91,11.91,0,0,1-8.06,2.64,10.67,10.67,0,0,1-8.6-3.68q-3.13-3.67-3.14-10.11V620a16.92,16.92,0,0,1,1.45-7.22,10.82,10.82,0,0,1,4.13-4.8,12.9,12.9,0,0,1,14.17,1,10.83,10.83,0,0,1,3.47,7.4H156a5.92,5.92,0,0,0-1.53-4,5.67,5.67,0,0,0-4-1.24,5,5,0,0,0-4.39,2.1q-1.46,2.1-1.49,6.51v2.15q0,4.61,1.39,6.74a4.9,4.9,0,0,0,4.41,2.13,5.81,5.81,0,0,0,4.05-1.24,5.62,5.62,0,0,0,1.53-3.84Z" transform="translate(-21.42 -12.63)"></path><path class="cls-3" d="M177.23,624.77h-4.67v10.41H166.7V606.74h10.57q5,0,7.77,2.25a7.77,7.77,0,0,1,2.74,6.35,8.72,8.72,0,0,1-1.26,4.85,8.62,8.62,0,0,1-3.82,3.1l6.15,11.62v.27h-6.29ZM172.56,620h4.73a4.84,4.84,0,0,0,3.42-1.12,4,4,0,0,0,1.21-3.09,4.29,4.29,0,0,0-1.15-3.17,4.73,4.73,0,0,0-3.5-1.15h-4.71Z" transform="translate(-21.42 -12.63)"></path><path class="cls-3" d="M210.34,622.86H199.09v7.61h13.2v4.71H193.23V606.74h19v4.75H199.09v6.78h11.25Z" transform="translate(-21.42 -12.63)"></path><path class="cls-3" d="M232.78,629.32H222.51l-1.95,5.86h-6.23l10.58-28.44h5.43L241,635.18h-6.23Zm-8.69-4.74h7.11l-3.57-10.65Z" transform="translate(-21.42 -12.63)"></path><path class="cls-3" d="M267.77,635.18h-5.86L250.5,616.47v18.71h-5.86V606.74h5.86l11.43,18.75V606.74h5.84Z" transform="translate(-21.42 -12.63)"></path><path class="cls-3" d="M297.24,621.61a17.15,17.15,0,0,1-1.48,7.36,11.16,11.16,0,0,1-4.25,4.88,12.53,12.53,0,0,1-12.64,0,11.24,11.24,0,0,1-4.3-4.85,16.56,16.56,0,0,1-1.54-7.26v-1.4a17.1,17.1,0,0,1,1.51-7.4,11.28,11.28,0,0,1,4.28-4.9,12.52,12.52,0,0,1,12.63,0,11.28,11.28,0,0,1,4.28,4.9,17,17,0,0,1,1.51,7.38Zm-5.93-1.29c0-3-.54-5.25-1.6-6.8a5.67,5.67,0,0,0-9.13,0c-1.06,1.53-1.6,3.78-1.62,6.73v1.39a12.16,12.16,0,0,0,1.6,6.75,5.61,5.61,0,0,0,9.15.09q1.57-2.31,1.6-6.75Z" transform="translate(-21.42 -12.63)"></path><path class="cls-3" d="M136.64,697.16v10h-5.86V678.74h11.09a12.71,12.71,0,0,1,5.63,1.18,8.56,8.56,0,0,1,3.74,3.33,9.18,9.18,0,0,1,1.31,4.91,8.16,8.16,0,0,1-2.86,6.59q-2.87,2.41-7.92,2.41Zm0-4.74h5.23a5.12,5.12,0,0,0,3.54-1.1,4,4,0,0,0,1.23-3.12,4.65,4.65,0,0,0-1.24-3.38,4.6,4.6,0,0,0-3.39-1.33h-5.37Z" transform="translate(-21.42 -12.63)"></path><path class="cls-3" d="M174.69,694.86H163.44v7.61h13.2v4.71H157.58V678.74h19v4.75H163.44v6.78h11.25Z" transform="translate(-21.42 -12.63)"></path><path class="cls-3" d="M204.2,707.18h-5.86l-11.4-18.71v18.71h-5.86V678.74h5.86l11.42,18.75V678.74h5.84Z" transform="translate(-21.42 -12.63)"></path><path class="cls-3" d="M225.06,699.72a3,3,0,0,0-1.17-2.55,15.11,15.11,0,0,0-4.22-1.87,29.68,29.68,0,0,1-4.82-1.95Q210,690.74,210,686.3a6.86,6.86,0,0,1,1.3-4.11,8.44,8.44,0,0,1,3.73-2.82,14,14,0,0,1,5.45-1,12.66,12.66,0,0,1,5.43,1.11,8.63,8.63,0,0,1,3.71,3.11,8.23,8.23,0,0,1,1.31,4.57h-5.86a3.85,3.85,0,0,0-1.23-3A5.06,5.06,0,0,0,220.4,683a5.35,5.35,0,0,0-3.34.91,2.84,2.84,0,0,0-1.19,2.39,2.75,2.75,0,0,0,1.39,2.33,15.71,15.71,0,0,0,4.11,1.75,17.93,17.93,0,0,1,7.29,3.73,7.46,7.46,0,0,1,2.28,5.55,6.85,6.85,0,0,1-2.79,5.79,12.22,12.22,0,0,1-7.52,2.1,14.55,14.55,0,0,1-6-1.2,9.54,9.54,0,0,1-4.11-3.29,8.45,8.45,0,0,1-1.41-4.84H215q0,4.69,5.62,4.7a5.44,5.44,0,0,0,3.26-.85A2.75,2.75,0,0,0,225.06,699.72Z" transform="translate(-21.42 -12.63)"></path><path class="cls-3" d="M242.14,707.18h-5.86V678.74h5.86Z" transform="translate(-21.42 -12.63)"></path><path class="cls-3" d="M265.68,694.86H254.43v7.61h13.2v4.71H248.57V678.74h19v4.75H254.43v6.78h11.25Z" transform="translate(-21.42 -12.63)"></path><path class="cls-3" d="M282.6,696.77h-4.67v10.41h-5.86V678.74h10.56q5,0,7.78,2.25a7.76,7.76,0,0,1,2.73,6.35,8.72,8.72,0,0,1-1.26,4.85,8.56,8.56,0,0,1-3.82,3.1l6.16,11.62v.27h-6.29ZM277.93,692h4.72a4.83,4.83,0,0,0,3.42-1.12,4,4,0,0,0,1.21-3.09,4.32,4.32,0,0,0-1.14-3.17,4.74,4.74,0,0,0-3.51-1.15h-4.7Z" transform="translate(-21.42 -12.63)"></path><path class="cls-3" d="M304.83,707.18H299V678.74h5.86Z" transform="translate(-21.42 -12.63)"></path></g></svg>